<?xml version="1.0" encoding="UTF-8" standalone="no"?>
<svg
   viewBox="0 0 48 48"
   version="1.1"
   id="svg1"
   sodipodi:docname="superchat.svg"
   inkscape:version="1.3.2 (091e20ef0f, 2023-11-25)"
   xmlns:inkscape="http://www.inkscape.org/namespaces/inkscape"
   xmlns:sodipodi="http://sodipodi.sourceforge.net/DTD/sodipodi-0.dtd"
   xmlns="http://www.w3.org/2000/svg"
   xmlns:svg="http://www.w3.org/2000/svg">
  <sodipodi:namedview
     id="namedview1"
     pagecolor="#505050"
     bordercolor="#eeeeee"
     borderopacity="1"
     inkscape:showpageshadow="0"
     inkscape:pageopacity="0"
     inkscape:pagecheckerboard="0"
     inkscape:deskcolor="#505050"
     inkscape:zoom="6.2976698"
     inkscape:cx="25.485617"
     inkscape:cy="-2.7788056"
     inkscape:window-width="1918"
     inkscape:window-height="1053"
     inkscape:window-x="0"
     inkscape:window-y="0"
     inkscape:window-maximized="0"
     inkscape:current-layer="svg1"
     showgrid="false" />
  <defs
     id="defs1">
    <style
       id="style1">.a { fill:none;stroke:#fff;stroke-linecap:round;stroke-linejoin:round; }
</style>
  </defs>
  <rect
     style="fill:#ff5e5e;stroke:none;stroke-width:1;stroke-linecap:round;stroke-linejoin:round;stroke-dashoffset:0.7;fill-opacity:1"
     id="rect1"
     width="47"
     height="47"
     x="0.5"
     y="0.5"
     rx="4"
     ry="4" />
  <path
     id="rect2"
     style="fill:#d00000;stroke-linecap:round;stroke-linejoin:round;stroke-dashoffset:0.7;fill-opacity:1"
     d="m 4.5,6.5 h 39 c 2.216,0 4,1.784 4,4 v 33 c 0,2.216 -1.784,4 -4,4 h -39 c -2.216,0 -4,-1.784 -4,-4 v -33 c 0,-2.216 1.784,-4 4,-4 z"
     sodipodi:nodetypes="sssssssss" />
  <rect
     style="fill:#e62019;fill-opacity:1;stroke:none;stroke-width:0.999999;stroke-linecap:round;stroke-linejoin:round;stroke-dashoffset:0.7"
     id="rect16"
     width="45"
     height="20.750637"
     x="1.5"
     y="25.479053"
     rx="4"
     ry="4" />
  <path
     style="font-size:24px;font-family:Retroscape;-inkscape-font-specification:Retroscape;fill:#ffffff;stroke-linecap:round;stroke-linejoin:round;stroke-dashoffset:0.7"
     d="M 22.283203,39.427734 V 36 H 15.427734 V 32.572266 H 29.138672 V 25.716797 H 15.427734 V 12 h 6.855469 V 8.5722656 h 3.427734 V 12 h 6.861329 v 3.433594 H 18.855469 v 6.855468 H 32.572266 V 36 h -6.861329 v 3.427734 z"
     id="text1"
     aria-label="$" />
</svg>
