<?xml version="1.0" encoding="UTF-8" standalone="no"?>
<svg
   viewBox="0 0 144 64"
   version="1.1"
   id="svg1"
   sodipodi:docname="strawnormalbroken2.svg"
   inkscape:version="1.3.2 (091e20ef0f, 2023-11-25)"
   width="144"
   height="64"
   xmlns:inkscape="http://www.inkscape.org/namespaces/inkscape"
   xmlns:sodipodi="http://sodipodi.sourceforge.net/DTD/sodipodi-0.dtd"
   xmlns="http://www.w3.org/2000/svg"
   xmlns:svg="http://www.w3.org/2000/svg">
  <sodipodi:namedview
     id="namedview1"
     pagecolor="#505050"
     bordercolor="#eeeeee"
     borderopacity="1"
     inkscape:showpageshadow="0"
     inkscape:pageopacity="0"
     inkscape:pagecheckerboard="0"
     inkscape:deskcolor="#505050"
     inkscape:zoom="4.09375"
     inkscape:cx="50.687023"
     inkscape:cy="47.755725"
     inkscape:window-width="1918"
     inkscape:window-height="1053"
     inkscape:window-x="0"
     inkscape:window-y="0"
     inkscape:window-maximized="1"
     inkscape:current-layer="svg1" />
  <defs
     id="defs1">
    <style
       id="style1">.a { fill:none;stroke:#fff;stroke-linecap:round;stroke-linejoin:round; }
</style>
  </defs>
  <g
     id="g5"
     inkscape:label="g5"
     style="display:inline"
     transform="rotate(-31.557223,110.62993,33.419338)">
    <path
       id="path4"
       style="display:inline;fill:#403b35;stroke-linecap:round;stroke-linejoin:round;stroke-dashoffset:0.7"
       d="M 78.062,0.5 H 143.5 c -0.56526,7.498884 -3.69795,13.389238 -8,15 H 78.062 Z"
       sodipodi:nodetypes="ccccc"
       inkscape:label="straw2"
       transform="translate(0,24)" />
    <path
       id="path5-9"
       style="display:inline;fill:#7c6f66;fill-opacity:1;stroke:none;stroke-linecap:round;stroke-linejoin:round;stroke-dashoffset:0.7;stroke-opacity:1"
       d="M 78.062,0.49999999 143.5,0.5 c -0.0894,1.1865654 -0.24317,2.3328641 -0.45564,3.4283003 H 78.062"
       sodipodi:nodetypes="cccc"
       inkscape:label="strawhighlight2"
       transform="translate(0,24)" />
    <path
       id="rect2-9"
       style="display:inline;fill:#292523;fill-opacity:1;stroke-linecap:round;stroke-linejoin:round;stroke-dashoffset:0.7"
       d="m 78.030795,24.5 h 0.06241 c 2.216,0 4.000205,1.784 4.000205,4 v 7 c 0,2.216 -1.784,4 -4,4 H 78.031 c -2.216,0 -4,-1.784 -4,-4 v -7 c 0,-2.216 1.783795,-4 3.999795,-4 z"
       sodipodi:nodetypes="sssssssss"
       sodipodi:insensitive="true" />
  </g>
  <g
     id="g2"
     transform="rotate(33.383587,2.5302175,25.169473)"
     style="display:inline;fill:#292523;fill-opacity:1;stroke:#000000;stroke-opacity:1"
     inkscape:label="g1">
    <path
       id="rect1"
       style="display:inline;fill:#403b35;fill-opacity:1;stroke:none;stroke-linecap:round;stroke-linejoin:round;stroke-dashoffset:0.7;stroke-opacity:1"
       inkscape:label="straw1"
       d="m 73.987568,3.9262751 c 0.02669,0.187287 0.04049,0.3788356 0.04049,0.5737249 v 7 c 0,2.215998 -1.784002,4 -4.023365,4 H 4.5 v 0 c -2.2159978,0 -4,-1.784002 -4,-4 v -7 C 0.5,4.3051698 0.5137902,4.1136784 0.5404516,3.9264457" />
    <path
       id="path5"
       style="display:inline;fill:#7c6f66;fill-opacity:1;stroke:none;stroke-linecap:round;stroke-linejoin:round;stroke-dashoffset:0.7;stroke-opacity:1"
       inkscape:label="straw1"
       d="M 0.54045158,3.9264457 C 0.81703703,1.9840941 2.4788324,0.5 4.5,0.5 h 65.504802 c 2.042455,0 3.705964,1.4840072 3.982766,3.4262751 z"
       sodipodi:nodetypes="csscc" />
    <path
       id="rect2"
       style="display:inline;fill:#292523;fill-opacity:1;stroke:none;stroke-linecap:round;stroke-linejoin:round;stroke-dashoffset:0.7;stroke-opacity:1"
       d="m 4.5,0.5 h 0.062405 c 2.216,0 4,1.784 4,4 v 7 c 0,2.216 -1.784,4 -4,4 H 4.5 c -2.216,0 -4,-1.784 -4,-4 v -7 c 0,-2.216 1.784,-4 4,-4 z"
       sodipodi:nodetypes="sssssssss" />
  </g>
  <g
     id="g1"
     style="display:inline"
     inkscape:label="fx"
     transform="translate(3.8122998,0.3664122)">
    <path
       style="fill:#e9cc29;fill-opacity:1;stroke:none;stroke-width:1;stroke-linecap:round;stroke-linejoin:round;stroke-dasharray:none;stroke-dashoffset:0.7;stroke-opacity:1"
       d="m 68.54093,55.690131 -6.339417,1.972698 2.9657,2.861481 z"
       id="path38"
       sodipodi:nodetypes="cccc" />
    <path
       style="fill:#e9cc29;fill-opacity:1;stroke:none;stroke-width:1;stroke-linecap:round;stroke-linejoin:round;stroke-dasharray:none;stroke-dashoffset:0.7;stroke-opacity:1"
       d="m 71.86128,55.84117 -2.965195,5.909393 3.817748,0.714096 z"
       id="path39"
       sodipodi:nodetypes="cccc" />
    <path
       style="fill:#e9cc29;fill-opacity:1;stroke:none;stroke-width:1;stroke-linecap:round;stroke-linejoin:round;stroke-dasharray:none;stroke-dashoffset:0.7;stroke-opacity:1"
       d="m 74.201513,55.690131 6.339417,1.972698 -3.085135,3.135429 z"
       id="path40"
       sodipodi:nodetypes="cccc" />
  </g>
  <g
     id="g8"
     style="display:inline"
     inkscape:label="fx"
     transform="matrix(1,0,0,-1,4.4687876,96.521185)">
    <path
       style="fill:#e9cc29;fill-opacity:1;stroke:none;stroke-width:1;stroke-linecap:round;stroke-linejoin:round;stroke-dasharray:none;stroke-dashoffset:0.7;stroke-opacity:1"
       d="m 68.54093,55.690131 -6.339417,1.972698 2.9657,2.861481 z"
       id="path6"
       sodipodi:nodetypes="cccc" />
    <path
       style="fill:#e9cc29;fill-opacity:1;stroke:none;stroke-width:1;stroke-linecap:round;stroke-linejoin:round;stroke-dasharray:none;stroke-dashoffset:0.7;stroke-opacity:1"
       d="m 71.86128,55.84117 -2.965195,5.909393 3.817748,0.714096 z"
       id="path7"
       sodipodi:nodetypes="cccc" />
    <path
       style="fill:#e9cc29;fill-opacity:1;stroke:none;stroke-width:1;stroke-linecap:round;stroke-linejoin:round;stroke-dasharray:none;stroke-dashoffset:0.7;stroke-opacity:1"
       d="m 74.201513,55.690131 6.339417,1.972698 -3.085135,3.135429 z"
       id="path8"
       sodipodi:nodetypes="cccc" />
  </g>
</svg>
